
   <svg
      xmlns="http://www.w3.org/2000/svg"
      width="100%"
      height="100%"
      viewBox="0 0 225 225"
      preserveAspectRatio="xMidYMid meet"
   >
      <path
         fill="#f96161"
         d="M 109.00,48.53
      C 117.37,47.23 125.36,50.93 126.79,60.00
        127.68,65.68 125.78,79.66 125.17,86.00
        125.17,86.00 122.42,118.00 122.42,118.00
        121.43,125.50 122.71,137.45 111.00,135.85
        101.91,134.60 102.85,121.05 102.17,114.00
        102.17,114.00 98.91,76.00 98.91,76.00
        98.52,70.69 97.37,65.37 98.21,60.00
        99.20,53.70 103.22,50.38 109.00,48.53 Z
      M 109.00,151.44
      C 110.97,151.26 111.91,150.96 114.00,151.44
        130.70,153.36 127.38,178.87 111.00,176.77
        99.02,175.24 94.24,157.86 109.00,151.44 Z"
      />
   </svg>
